  0
SECTION
  2
HEADER
  9
$ACADVER
  1
AC1009
  9
$FILLMODE
 70
 0
  9
$SPLFRAME
 70
 1
  9
$EXTMIN
 10
0
 20
0
 30
0.0
  9
$EXTMAX
 10
1058.33
 20
1058.33
 30
0.0
  0
ENDSEC
  0
SECTION
  2
TABLES
  0
TABLE
  2
LAYER
 70
1
  0
LAYER
  2
0
 70
     0
 62
     7
  6
CONTINUOUS
  0
ENDTAB
  0
ENDSEC
  0
SECTION
  2
ENTITIES
  0
LINE
  8
0
 62
     0
 10
0.0950846
 20
100.446
 30
0.0
 11
433.483
 21
100.446
 31
0.0
  0
LINE
  8
0
 62
     0
 10
433.483
 20
100.446
 30
0.0
 11
433.483
 21
0.434082
 31
0.0
  0
LINE
  8
0
 62
     0
 10
433.483
 20
0.434082
 30
0.0
 11
0.0950846
 21
0.434082
 31
0.0
  0
LINE
  8
0
 62
     0
 10
0.0950846
 20
0.434082
 30
0.0
 11
0.0950846
 21
100.446
 31
0.0
  0
LINE
  8
0
 62
     0
 10
316.943
 20
16.9595
 30
0.0
 11
330.944
 21
16.9595
 31
0.0
  0
LINE
  8
0
 62
     0
 10
330.944
 20
16.9595
 30
0.0
 11
330.944
 21
2.96003
 31
0.0
  0
LINE
  8
0
 62
     0
 10
330.944
 20
2.96003
 30
0.0
 11
316.943
 21
2.96003
 31
0.0
  0
LINE
  8
0
 62
     0
 10
316.943
 20
2.96003
 30
0.0
 11
316.943
 21
16.9595
 31
0.0
  0
LINE
  8
0
 62
     0
 10
335.995
 20
16.9595
 30
0.0
 11
349.994
 21
16.9595
 31
0.0
  0
LINE
  8
0
 62
     0
 10
349.994
 20
16.9595
 30
0.0
 11
349.994
 21
2.96003
 31
0.0
  0
LINE
  8
0
 62
     0
 10
349.994
 20
2.96003
 30
0.0
 11
335.995
 21
2.96003
 31
0.0
  0
LINE
  8
0
 62
     0
 10
335.995
 20
2.96003
 30
0.0
 11
335.995
 21
16.9595
 31
0.0
  0
LINE
  8
0
 62
     0
 10
355.046
 20
16.9595
 30
0.0
 11
369.044
 21
16.9595
 31
0.0
  0
LINE
  8
0
 62
     0
 10
369.044
 20
16.9595
 30
0.0
 11
369.044
 21
2.96003
 31
0.0
  0
LINE
  8
0
 62
     0
 10
369.044
 20
2.96003
 30
0.0
 11
355.046
 21
2.96003
 31
0.0
  0
LINE
  8
0
 62
     0
 10
355.046
 20
2.96003
 30
0.0
 11
355.046
 21
16.9595
 31
0.0
  0
LINE
  8
0
 62
     0
 10
166.926
 20
21.722
 30
0.0
 11
166.926
 21
17.0215
 31
0.0
  0
LINE
  8
0
 62
     0
 10
166.926
 20
17.0215
 30
0.0
 11
127.301
 21
17.0215
 31
0.0
  0
LINE
  8
0
 62
     0
 10
127.301
 20
17.0215
 30
0.0
 11
127.301
 21
20.2517
 31
0.0
  0
LINE
  8
0
 62
     0
 10
127.301
 20
20.2517
 30
0.0
 11
120.551
 21
20.2517
 31
0.0
  0
LINE
  8
0
 62
     0
 10
120.551
 20
20.2517
 30
0.0
 11
120.551
 21
17.0215
 31
0.0
  0
LINE
  8
0
 62
     0
 10
120.551
 20
17.0215
 30
0.0
 11
119.725
 21
17.0215
 31
0.0
  0
LINE
  8
0
 62
     0
 10
119.725
 20
17.0215
 30
0.0
 11
119.725
 21
14.2227
 31
0.0
  0
LINE
  8
0
 62
     0
 10
119.725
 20
14.2227
 30
0.0
 11
120.551
 21
14.2227
 31
0.0
  0
LINE
  8
0
 62
     0
 10
120.551
 20
14.2227
 30
0.0
 11
120.551
 21
7.95267
 31
0.0
  0
LINE
  8
0
 62
     0
 10
120.551
 20
7.95267
 30
0.0
 11
122.276
 21
7.95267
 31
0.0
  0
LINE
  8
0
 62
     0
 10
122.276
 20
7.95267
 30
0.0
 11
122.276
 21
6.75238
 31
0.0
  0
LINE
  8
0
 62
     0
 10
122.276
 20
6.75238
 30
0.0
 11
125.575
 21
6.75238
 31
0.0
  0
LINE
  8
0
 62
     0
 10
125.575
 20
6.75238
 30
0.0
 11
125.575
 21
7.95267
 31
0.0
  0
LINE
  8
0
 62
     0
 10
125.575
 20
7.95267
 30
0.0
 11
127.301
 21
7.95267
 31
0.0
  0
LINE
  8
0
 62
     0
 10
127.301
 20
7.95267
 30
0.0
 11
127.301
 21
12.4216
 31
0.0
  0
LINE
  8
0
 62
     0
 10
127.301
 20
12.4216
 30
0.0
 11
166.926
 21
12.4216
 31
0.0
  0
LINE
  8
0
 62
     0
 10
166.926
 20
12.4216
 30
0.0
 11
166.926
 21
7.72252
 31
0.0
  0
LINE
  8
0
 62
     0
 10
166.926
 20
7.72252
 30
0.0
 11
180.925
 21
7.72252
 31
0.0
  0
LINE
  8
0
 62
     0
 10
180.925
 20
7.72252
 30
0.0
 11
180.925
 21
12.4216
 31
0.0
  0
LINE
  8
0
 62
     0
 10
180.925
 20
12.4216
 30
0.0
 11
220.551
 21
12.4216
 31
0.0
  0
LINE
  8
0
 62
     0
 10
220.551
 20
12.4216
 30
0.0
 11
220.551
 21
7.95267
 31
0.0
  0
LINE
  8
0
 62
     0
 10
220.551
 20
7.95267
 30
0.0
 11
222.275
 21
7.95267
 31
0.0
  0
LINE
  8
0
 62
     0
 10
222.275
 20
7.95267
 30
0.0
 11
222.275
 21
6.75238
 31
0.0
  0
LINE
  8
0
 62
     0
 10
222.275
 20
6.75238
 30
0.0
 11
225.575
 21
6.75238
 31
0.0
  0
LINE
  8
0
 62
     0
 10
225.575
 20
6.75238
 30
0.0
 11
225.575
 21
7.95267
 31
0.0
  0
LINE
  8
0
 62
     0
 10
225.575
 20
7.95267
 30
0.0
 11
227.3
 21
7.95267
 31
0.0
  0
LINE
  8
0
 62
     0
 10
227.3
 20
7.95267
 30
0.0
 11
227.3
 21
14.2227
 31
0.0
  0
LINE
  8
0
 62
     0
 10
227.3
 20
14.2227
 30
0.0
 11
228.126
 21
14.2227
 31
0.0
  0
LINE
  8
0
 62
     0
 10
228.126
 20
14.2227
 30
0.0
 11
228.126
 21
17.0215
 31
0.0
  0
LINE
  8
0
 62
     0
 10
228.126
 20
17.0215
 30
0.0
 11
227.3
 21
17.0215
 31
0.0
  0
LINE
  8
0
 62
     0
 10
227.3
 20
17.0215
 30
0.0
 11
227.3
 21
20.2517
 31
0.0
  0
LINE
  8
0
 62
     0
 10
227.3
 20
20.2517
 30
0.0
 11
220.551
 21
20.2517
 31
0.0
  0
LINE
  8
0
 62
     0
 10
220.551
 20
20.2517
 30
0.0
 11
220.551
 21
17.0215
 31
0.0
  0
LINE
  8
0
 62
     0
 10
220.551
 20
17.0215
 30
0.0
 11
180.925
 21
17.0215
 31
0.0
  0
LINE
  8
0
 62
     0
 10
180.925
 20
17.0215
 30
0.0
 11
180.925
 21
21.722
 31
0.0
  0
LINE
  8
0
 62
     0
 10
180.925
 20
21.722
 30
0.0
 11
166.926
 21
21.722
 31
0.0
  0
LINE
  8
0
 62
     0
 10
2.61965
 20
21.722
 30
0.0
 11
16.6192
 21
21.722
 31
0.0
  0
LINE
  8
0
 62
     0
 10
16.6192
 20
21.722
 30
0.0
 11
16.6192
 21
7.72252
 31
0.0
  0
LINE
  8
0
 62
     0
 10
16.6192
 20
7.72252
 30
0.0
 11
2.61965
 21
7.72252
 31
0.0
  0
LINE
  8
0
 62
     0
 10
2.61965
 20
7.72252
 30
0.0
 11
2.61965
 21
21.722
 31
0.0
  0
LINE
  8
0
 62
     0
 10
47.8621
 20
21.722
 30
0.0
 11
61.8628
 21
21.722
 31
0.0
  0
LINE
  8
0
 62
     0
 10
61.8628
 20
21.722
 30
0.0
 11
61.8628
 21
7.72252
 31
0.0
  0
LINE
  8
0
 62
     0
 10
61.8628
 20
7.72252
 30
0.0
 11
47.8621
 21
7.72252
 31
0.0
  0
LINE
  8
0
 62
     0
 10
47.8621
 20
7.72252
 30
0.0
 11
47.8621
 21
21.722
 31
0.0
  0
LINE
  8
0
 62
     0
 10
71.676
 20
21.722
 30
0.0
 11
85.6753
 21
21.722
 31
0.0
  0
LINE
  8
0
 62
     0
 10
85.6753
 20
21.722
 30
0.0
 11
85.6753
 21
7.72252
 31
0.0
  0
LINE
  8
0
 62
     0
 10
85.6753
 20
7.72252
 30
0.0
 11
71.676
 21
7.72252
 31
0.0
  0
LINE
  8
0
 62
     0
 10
71.676
 20
7.72252
 30
0.0
 11
71.676
 21
21.722
 31
0.0
  0
LINE
  8
0
 62
     0
 10
95.4871
 20
21.722
 30
0.0
 11
109.488
 21
21.722
 31
0.0
  0
LINE
  8
0
 62
     0
 10
109.488
 20
21.722
 30
0.0
 11
109.488
 21
7.72252
 31
0.0
  0
LINE
  8
0
 62
     0
 10
109.488
 20
7.72252
 30
0.0
 11
95.4871
 21
7.72252
 31
0.0
  0
LINE
  8
0
 62
     0
 10
95.4871
 20
7.72252
 30
0.0
 11
95.4871
 21
21.722
 31
0.0
  0
LINE
  8
0
 62
     0
 10
238.362
 20
21.722
 30
0.0
 11
252.361
 21
21.722
 31
0.0
  0
LINE
  8
0
 62
     0
 10
252.361
 20
21.722
 30
0.0
 11
252.361
 21
7.72252
 31
0.0
  0
LINE
  8
0
 62
     0
 10
252.361
 20
7.72252
 30
0.0
 11
238.362
 21
7.72252
 31
0.0
  0
LINE
  8
0
 62
     0
 10
238.362
 20
7.72252
 30
0.0
 11
238.362
 21
21.722
 31
0.0
  0
LINE
  8
0
 62
     0
 10
262.176
 20
21.722
 30
0.0
 11
276.175
 21
21.722
 31
0.0
  0
LINE
  8
0
 62
     0
 10
276.175
 20
21.722
 30
0.0
 11
276.175
 21
7.72252
 31
0.0
  0
LINE
  8
0
 62
     0
 10
276.175
 20
7.72252
 30
0.0
 11
262.176
 21
7.72252
 31
0.0
  0
LINE
  8
0
 62
     0
 10
262.176
 20
7.72252
 30
0.0
 11
262.176
 21
21.722
 31
0.0
  0
LINE
  8
0
 62
     0
 10
285.987
 20
21.722
 30
0.0
 11
299.988
 21
21.722
 31
0.0
  0
LINE
  8
0
 62
     0
 10
299.988
 20
21.722
 30
0.0
 11
299.988
 21
7.72252
 31
0.0
  0
LINE
  8
0
 62
     0
 10
299.988
 20
7.72252
 30
0.0
 11
285.987
 21
7.72252
 31
0.0
  0
LINE
  8
0
 62
     0
 10
285.987
 20
7.72252
 30
0.0
 11
285.987
 21
21.722
 31
0.0
  0
LINE
  8
0
 62
     0
 10
378.859
 20
21.722
 30
0.0
 11
392.857
 21
21.722
 31
0.0
  0
LINE
  8
0
 62
     0
 10
392.857
 20
21.722
 30
0.0
 11
392.857
 21
7.72252
 31
0.0
  0
LINE
  8
0
 62
     0
 10
392.857
 20
7.72252
 30
0.0
 11
378.859
 21
7.72252
 31
0.0
  0
LINE
  8
0
 62
     0
 10
378.859
 20
7.72252
 30
0.0
 11
378.859
 21
21.722
 31
0.0
  0
LINE
  8
0
 62
     0
 10
397.909
 20
21.722
 30
0.0
 11
411.907
 21
21.722
 31
0.0
  0
LINE
  8
0
 62
     0
 10
411.907
 20
21.722
 30
0.0
 11
411.907
 21
7.72252
 31
0.0
  0
LINE
  8
0
 62
     0
 10
411.907
 20
7.72252
 30
0.0
 11
397.909
 21
7.72252
 31
0.0
  0
LINE
  8
0
 62
     0
 10
397.909
 20
7.72252
 30
0.0
 11
397.909
 21
21.722
 31
0.0
  0
LINE
  8
0
 62
     0
 10
423.457
 20
40.3475
 30
0.0
 11
423.457
 21
39.522
 31
0.0
  0
LINE
  8
0
 62
     0
 10
423.457
 20
39.522
 30
0.0
 11
417.184
 21
39.522
 31
0.0
  0
LINE
  8
0
 62
     0
 10
417.184
 20
39.522
 30
0.0
 11
417.184
 21
37.797
 31
0.0
  0
LINE
  8
0
 62
     0
 10
417.184
 20
37.797
 30
0.0
 11
415.989
 21
37.797
 31
0.0
  0
LINE
  8
0
 62
     0
 10
415.989
 20
37.797
 30
0.0
 11
415.989
 21
34.4978
 31
0.0
  0
LINE
  8
0
 62
     0
 10
415.989
 20
34.4978
 30
0.0
 11
417.184
 21
34.4978
 31
0.0
  0
LINE
  8
0
 62
     0
 10
417.184
 20
34.4978
 30
0.0
 11
417.184
 21
32.7725
 31
0.0
  0
LINE
  8
0
 62
     0
 10
417.184
 20
32.7725
 30
0.0
 11
421.658
 21
32.7725
 31
0.0
  0
LINE
  8
0
 62
     0
 10
421.658
 20
32.7725
 30
0.0
 11
421.658
 21
31.247
 31
0.0
  0
LINE
  8
0
 62
     0
 10
421.658
 20
31.247
 30
0.0
 11
416.959
 21
31.247
 31
0.0
  0
LINE
  8
0
 62
     0
 10
416.959
 20
31.247
 30
0.0
 11
416.959
 21
17.2475
 31
0.0
  0
LINE
  8
0
 62
     0
 10
416.959
 20
17.2475
 30
0.0
 11
421.658
 21
17.2475
 31
0.0
  0
LINE
  8
0
 62
     0
 10
421.658
 20
17.2475
 30
0.0
 11
421.658
 21
15.722
 31
0.0
  0
LINE
  8
0
 62
     0
 10
421.658
 20
15.722
 30
0.0
 11
417.184
 21
15.722
 31
0.0
  0
LINE
  8
0
 62
     0
 10
417.184
 20
15.722
 30
0.0
 11
417.184
 21
13.9967
 31
0.0
  0
LINE
  8
0
 62
     0
 10
417.184
 20
13.9967
 30
0.0
 11
415.989
 21
13.9967
 31
0.0
  0
LINE
  8
0
 62
     0
 10
415.989
 20
13.9967
 30
0.0
 11
415.989
 21
10.6977
 31
0.0
  0
LINE
  8
0
 62
     0
 10
415.989
 20
10.6977
 30
0.0
 11
417.184
 21
10.6977
 31
0.0
  0
LINE
  8
0
 62
     0
 10
417.184
 20
10.6977
 30
0.0
 11
417.184
 21
8.97241
 31
0.0
  0
LINE
  8
0
 62
     0
 10
417.184
 20
8.97241
 30
0.0
 11
423.457
 21
8.97241
 31
0.0
  0
LINE
  8
0
 62
     0
 10
423.457
 20
8.97241
 30
0.0
 11
423.457
 21
8.14698
 31
0.0
  0
LINE
  8
0
 62
     0
 10
423.457
 20
8.14698
 30
0.0
 11
426.258
 21
8.14698
 31
0.0
  0
LINE
  8
0
 62
     0
 10
426.258
 20
8.14698
 30
0.0
 11
426.258
 21
8.97241
 31
0.0
  0
LINE
  8
0
 62
     0
 10
426.258
 20
8.97241
 30
0.0
 11
429.486
 21
8.97241
 31
0.0
  0
LINE
  8
0
 62
     0
 10
429.486
 20
8.97241
 30
0.0
 11
429.486
 21
15.722
 31
0.0
  0
LINE
  8
0
 62
     0
 10
429.486
 20
15.722
 30
0.0
 11
426.258
 21
15.722
 31
0.0
  0
LINE
  8
0
 62
     0
 10
426.258
 20
15.722
 30
0.0
 11
426.258
 21
17.2475
 31
0.0
  0
LINE
  8
0
 62
     0
 10
426.258
 20
17.2475
 30
0.0
 11
430.957
 21
17.2475
 31
0.0
  0
LINE
  8
0
 62
     0
 10
430.957
 20
17.2475
 30
0.0
 11
430.957
 21
31.247
 31
0.0
  0
LINE
  8
0
 62
     0
 10
430.957
 20
31.247
 30
0.0
 11
426.258
 21
31.247
 31
0.0
  0
LINE
  8
0
 62
     0
 10
426.258
 20
31.247
 30
0.0
 11
426.258
 21
32.7725
 31
0.0
  0
LINE
  8
0
 62
     0
 10
426.258
 20
32.7725
 30
0.0
 11
429.486
 21
32.7725
 31
0.0
  0
LINE
  8
0
 62
     0
 10
429.486
 20
32.7725
 30
0.0
 11
429.486
 21
39.522
 31
0.0
  0
LINE
  8
0
 62
     0
 10
429.486
 20
39.522
 30
0.0
 11
426.258
 21
39.522
 31
0.0
  0
LINE
  8
0
 62
     0
 10
426.258
 20
39.522
 30
0.0
 11
426.258
 21
40.3475
 31
0.0
  0
LINE
  8
0
 62
     0
 10
426.258
 20
40.3475
 30
0.0
 11
423.457
 21
40.3475
 31
0.0
  0
LINE
  8
0
 62
     0
 10
335.995
 20
36.0094
 30
0.0
 11
349.994
 21
36.0094
 31
0.0
  0
LINE
  8
0
 62
     0
 10
349.994
 20
36.0094
 30
0.0
 11
349.994
 21
22.01
 31
0.0
  0
LINE
  8
0
 62
     0
 10
349.994
 20
22.01
 30
0.0
 11
335.995
 21
22.01
 31
0.0
  0
LINE
  8
0
 62
     0
 10
335.995
 20
22.01
 30
0.0
 11
335.995
 21
36.0094
 31
0.0
  0
LINE
  8
0
 62
     0
 10
57.3871
 20
40.7719
 30
0.0
 11
57.3871
 21
36.0715
 31
0.0
  0
LINE
  8
0
 62
     0
 10
57.3871
 20
36.0715
 30
0.0
 11
55.8631
 21
36.0715
 31
0.0
  0
LINE
  8
0
 62
     0
 10
55.8631
 20
36.0715
 30
0.0
 11
55.8631
 21
39.3016
 31
0.0
  0
LINE
  8
0
 62
     0
 10
55.8631
 20
39.3016
 30
0.0
 11
49.112
 21
39.3016
 31
0.0
  0
LINE
  8
0
 62
     0
 10
49.112
 20
39.3016
 30
0.0
 11
49.112
 21
36.0715
 31
0.0
  0
LINE
  8
0
 62
     0
 10
49.112
 20
36.0715
 30
0.0
 11
48.2879
 21
36.0715
 31
0.0
  0
LINE
  8
0
 62
     0
 10
48.2879
 20
36.0715
 30
0.0
 11
48.2879
 21
33.2727
 31
0.0
  0
LINE
  8
0
 62
     0
 10
48.2879
 20
33.2727
 30
0.0
 11
49.112
 21
33.2727
 31
0.0
  0
LINE
  8
0
 62
     0
 10
49.112
 20
33.2727
 30
0.0
 11
49.112
 21
27.0027
 31
0.0
  0
LINE
  8
0
 62
     0
 10
49.112
 20
27.0027
 30
0.0
 11
50.837
 21
27.0027
 31
0.0
  0
LINE
  8
0
 62
     0
 10
50.837
 20
27.0027
 30
0.0
 11
50.837
 21
25.8024
 31
0.0
  0
LINE
  8
0
 62
     0
 10
50.837
 20
25.8024
 30
0.0
 11
54.1376
 21
25.8024
 31
0.0
  0
LINE
  8
0
 62
     0
 10
54.1376
 20
25.8024
 30
0.0
 11
54.1376
 21
27.0027
 31
0.0
  0
LINE
  8
0
 62
     0
 10
54.1376
 20
27.0027
 30
0.0
 11
55.8631
 21
27.0027
 31
0.0
  0
LINE
  8
0
 62
     0
 10
55.8631
 20
27.0027
 30
0.0
 11
55.8631
 21
31.4716
 31
0.0
  0
LINE
  8
0
 62
     0
 10
55.8631
 20
31.4716
 30
0.0
 11
57.3871
 21
31.4716
 31
0.0
  0
LINE
  8
0
 62
     0
 10
57.3871
 20
31.4716
 30
0.0
 11
57.3871
 21
26.7725
 31
0.0
  0
LINE
  8
0
 62
     0
 10
57.3871
 20
26.7725
 30
0.0
 11
71.3878
 21
26.7725
 31
0.0
  0
LINE
  8
0
 62
     0
 10
71.3878
 20
26.7725
 30
0.0
 11
71.3878
 21
31.4716
 31
0.0
  0
LINE
  8
0
 62
     0
 10
71.3878
 20
31.4716
 30
0.0
 11
72.9121
 21
31.4716
 31
0.0
  0
LINE
  8
0
 62
     0
 10
72.9121
 20
31.4716
 30
0.0
 11
72.9121
 21
27.0027
 31
0.0
  0
LINE
  8
0
 62
     0
 10
72.9121
 20
27.0027
 30
0.0
 11
74.6372
 21
27.0027
 31
0.0
  0
LINE
  8
0
 62
     0
 10
74.6372
 20
27.0027
 30
0.0
 11
74.6372
 21
25.8024
 31
0.0
  0
LINE
  8
0
 62
     0
 10
74.6372
 20
25.8024
 30
0.0
 11
77.9378
 21
25.8024
 31
0.0
  0
LINE
  8
0
 62
     0
 10
77.9378
 20
25.8024
 30
0.0
 11
77.9378
 21
27.0027
 31
0.0
  0
LINE
  8
0
 62
     0
 10
77.9378
 20
27.0027
 30
0.0
 11
79.6629
 21
27.0027
 31
0.0
  0
LINE
  8
0
 62
     0
 10
79.6629
 20
27.0027
 30
0.0
 11
79.6629
 21
33.2727
 31
0.0
  0
LINE
  8
0
 62
     0
 10
79.6629
 20
33.2727
 30
0.0
 11
80.487
 21
33.2727
 31
0.0
  0
LINE
  8
0
 62
     0
 10
80.487
 20
33.2727
 30
0.0
 11
80.487
 21
36.0715
 31
0.0
  0
LINE
  8
0
 62
     0
 10
80.487
 20
36.0715
 30
0.0
 11
79.6629
 21
36.0715
 31
0.0
  0
LINE
  8
0
 62
     0
 10
79.6629
 20
36.0715
 30
0.0
 11
79.6629
 21
39.3016
 31
0.0
  0
LINE
  8
0
 62
     0
 10
79.6629
 20
39.3016
 30
0.0
 11
72.9121
 21
39.3016
 31
0.0
  0
LINE
  8
0
 62
     0
 10
72.9121
 20
39.3016
 30
0.0
 11
72.9121
 21
36.0715
 31
0.0
  0
LINE
  8
0
 62
     0
 10
72.9121
 20
36.0715
 30
0.0
 11
71.3878
 21
36.0715
 31
0.0
  0
LINE
  8
0
 62
     0
 10
71.3878
 20
36.0715
 30
0.0
 11
71.3878
 21
40.7719
 31
0.0
  0
LINE
  8
0
 62
     0
 10
71.3878
 20
40.7719
 30
0.0
 11
57.3871
 21
40.7719
 31
0.0
  0
LINE
  8
0
 62
     0
 10
295.512
 20
40.7719
 30
0.0
 11
295.512
 21
36.0715
 31
0.0
  0
LINE
  8
0
 62
     0
 10
295.512
 20
36.0715
 30
0.0
 11
293.988
 21
36.0715
 31
0.0
  0
LINE
  8
0
 62
     0
 10
293.988
 20
36.0715
 30
0.0
 11
293.988
 21
39.3016
 31
0.0
  0
LINE
  8
0
 62
     0
 10
293.988
 20
39.3016
 30
0.0
 11
287.237
 21
39.3016
 31
0.0
  0
LINE
  8
0
 62
     0
 10
287.237
 20
39.3016
 30
0.0
 11
287.237
 21
36.0715
 31
0.0
  0
LINE
  8
0
 62
     0
 10
287.237
 20
36.0715
 30
0.0
 11
286.413
 21
36.0715
 31
0.0
  0
LINE
  8
0
 62
     0
 10
286.413
 20
36.0715
 30
0.0
 11
286.413
 21
33.2727
 31
0.0
  0
LINE
  8
0
 62
     0
 10
286.413
 20
33.2727
 30
0.0
 11
287.237
 21
33.2727
 31
0.0
  0
LINE
  8
0
 62
     0
 10
287.237
 20
33.2727
 30
0.0
 11
287.237
 21
27.0027
 31
0.0
  0
LINE
  8
0
 62
     0
 10
287.237
 20
27.0027
 30
0.0
 11
288.962
 21
27.0027
 31
0.0
  0
LINE
  8
0
 62
     0
 10
288.962
 20
27.0027
 30
0.0
 11
288.962
 21
25.8024
 31
0.0
  0
LINE
  8
0
 62
     0
 10
288.962
 20
25.8024
 30
0.0
 11
292.263
 21
25.8024
 31
0.0
  0
LINE
  8
0
 62
     0
 10
292.263
 20
25.8024
 30
0.0
 11
292.263
 21
27.0027
 31
0.0
  0
LINE
  8
0
 62
     0
 10
292.263
 20
27.0027
 30
0.0
 11
293.988
 21
27.0027
 31
0.0
  0
LINE
  8
0
 62
     0
 10
293.988
 20
27.0027
 30
0.0
 11
293.988
 21
31.4716
 31
0.0
  0
LINE
  8
0
 62
     0
 10
293.988
 20
31.4716
 30
0.0
 11
295.512
 21
31.4716
 31
0.0
  0
LINE
  8
0
 62
     0
 10
295.512
 20
31.4716
 30
0.0
 11
295.512
 21
26.7725
 31
0.0
  0
LINE
  8
0
 62
     0
 10
295.512
 20
26.7725
 30
0.0
 11
309.513
 21
26.7725
 31
0.0
  0
LINE
  8
0
 62
     0
 10
309.513
 20
26.7725
 30
0.0
 11
309.513
 21
31.4716
 31
0.0
  0
LINE
  8
0
 62
     0
 10
309.513
 20
31.4716
 30
0.0
 11
311.037
 21
31.4716
 31
0.0
  0
LINE
  8
0
 62
     0
 10
311.037
 20
31.4716
 30
0.0
 11
311.037
 21
27.0027
 31
0.0
  0
LINE
  8
0
 62
     0
 10
311.037
 20
27.0027
 30
0.0
 11
312.762
 21
27.0027
 31
0.0
  0
LINE
  8
0
 62
     0
 10
312.762
 20
27.0027
 30
0.0
 11
312.762
 21
25.8024
 31
0.0
  0
LINE
  8
0
 62
     0
 10
312.762
 20
25.8024
 30
0.0
 11
316.063
 21
25.8024
 31
0.0
  0
LINE
  8
0
 62
     0
 10
316.063
 20
25.8024
 30
0.0
 11
316.063
 21
27.0027
 31
0.0
  0
LINE
  8
0
 62
     0
 10
316.063
 20
27.0027
 30
0.0
 11
317.788
 21
27.0027
 31
0.0
  0
LINE
  8
0
 62
     0
 10
317.788
 20
27.0027
 30
0.0
 11
317.788
 21
33.2727
 31
0.0
  0
LINE
  8
0
 62
     0
 10
317.788
 20
33.2727
 30
0.0
 11
318.612
 21
33.2727
 31
0.0
  0
LINE
  8
0
 62
     0
 10
318.612
 20
33.2727
 30
0.0
 11
318.612
 21
36.0715
 31
0.0
  0
LINE
  8
0
 62
     0
 10
318.612
 20
36.0715
 30
0.0
 11
317.788
 21
36.0715
 31
0.0
  0
LINE
  8
0
 62
     0
 10
317.788
 20
36.0715
 30
0.0
 11
317.788
 21
39.3016
 31
0.0
  0
LINE
  8
0
 62
     0
 10
317.788
 20
39.3016
 30
0.0
 11
311.037
 21
39.3016
 31
0.0
  0
LINE
  8
0
 62
     0
 10
311.037
 20
39.3016
 30
0.0
 11
311.037
 21
36.0715
 31
0.0
  0
LINE
  8
0
 62
     0
 10
311.037
 20
36.0715
 30
0.0
 11
309.513
 21
36.0715
 31
0.0
  0
LINE
  8
0
 62
     0
 10
309.513
 20
36.0715
 30
0.0
 11
309.513
 21
40.7719
 31
0.0
  0
LINE
  8
0
 62
     0
 10
309.513
 20
40.7719
 30
0.0
 11
295.512
 21
40.7719
 31
0.0
  0
LINE
  8
0
 62
     0
 10
2.61965
 20
40.7719
 30
0.0
 11
16.6192
 21
40.7719
 31
0.0
  0
LINE
  8
0
 62
     0
 10
16.6192
 20
40.7719
 30
0.0
 11
16.6192
 21
26.7725
 31
0.0
  0
LINE
  8
0
 62
     0
 10
16.6192
 20
26.7725
 30
0.0
 11
2.61965
 21
26.7725
 31
0.0
  0
LINE
  8
0
 62
     0
 10
2.61965
 20
26.7725
 30
0.0
 11
2.61965
 21
40.7719
 31
0.0
  0
LINE
  8
0
 62
     0
 10
88.3447
 20
40.7719
 30
0.0
 11
102.344
 21
40.7719
 31
0.0
  0
LINE
  8
0
 62
     0
 10
102.344
 20
40.7719
 30
0.0
 11
102.344
 21
26.7725
 31
0.0
  0
LINE
  8
0
 62
     0
 10
102.344
 20
26.7725
 30
0.0
 11
88.3447
 21
26.7725
 31
0.0
  0
LINE
  8
0
 62
     0
 10
88.3447
 20
26.7725
 30
0.0
 11
88.3447
 21
40.7719
 31
0.0
  0
LINE
  8
0
 62
     0
 10
107.395
 20
40.7719
 30
0.0
 11
121.394
 21
40.7719
 31
0.0
  0
LINE
  8
0
 62
     0
 10
121.394
 20
40.7719
 30
0.0
 11
121.394
 21
26.7725
 31
0.0
  0
LINE
  8
0
 62
     0
 10
121.394
 20
26.7725
 30
0.0
 11
107.395
 21
26.7725
 31
0.0
  0
LINE
  8
0
 62
     0
 10
107.395
 20
26.7725
 30
0.0
 11
107.395
 21
40.7719
 31
0.0
  0
LINE
  8
0
 62
     0
 10
126.445
 20
40.7719
 30
0.0
 11
140.444
 21
40.7719
 31
0.0
  0
LINE
  8
0
 62
     0
 10
140.444
 20
40.7719
 30
0.0
 11
140.444
 21
26.7725
 31
0.0
  0
LINE
  8
0
 62
     0
 10
140.444
 20
26.7725
 30
0.0
 11
126.445
 21
26.7725
 31
0.0
  0
LINE
  8
0
 62
     0
 10
126.445
 20
26.7725
 30
0.0
 11
126.445
 21
40.7719
 31
0.0
  0
LINE
  8
0
 62
     0
 10
145.495
 20
40.7719
 30
0.0
 11
159.494
 21
40.7719
 31
0.0
  0
LINE
  8
0
 62
     0
 10
159.494
 20
40.7719
 30
0.0
 11
159.494
 21
26.7725
 31
0.0
  0
LINE
  8
0
 62
     0
 10
159.494
 20
26.7725
 30
0.0
 11
145.495
 21
26.7725
 31
0.0
  0
LINE
  8
0
 62
     0
 10
145.495
 20
26.7725
 30
0.0
 11
145.495
 21
40.7719
 31
0.0
  0
LINE
  8
0
 62
     0
 10
164.545
 20
40.7719
 30
0.0
 11
178.544
 21
40.7719
 31
0.0
  0
LINE
  8
0
 62
     0
 10
178.544
 20
40.7719
 30
0.0
 11
178.544
 21
26.7725
 31
0.0
  0
LINE
  8
0
 62
     0
 10
178.544
 20
26.7725
 30
0.0
 11
164.545
 21
26.7725
 31
0.0
  0
LINE
  8
0
 62
     0
 10
164.545
 20
26.7725
 30
0.0
 11
164.545
 21
40.7719
 31
0.0
  0
LINE
  8
0
 62
     0
 10
183.595
 20
40.7719
 30
0.0
 11
197.594
 21
40.7719
 31
0.0
  0
LINE
  8
0
 62
     0
 10
197.594
 20
40.7719
 30
0.0
 11
197.594
 21
26.7725
 31
0.0
  0
LINE
  8
0
 62
     0
 10
197.594
 20
26.7725
 30
0.0
 11
183.595
 21
26.7725
 31
0.0
  0
LINE
  8
0
 62
     0
 10
183.595
 20
26.7725
 30
0.0
 11
183.595
 21
40.7719
 31
0.0
  0
LINE
  8
0
 62
     0
 10
202.645
 20
40.7719
 30
0.0
 11
216.644
 21
40.7719
 31
0.0
  0
LINE
  8
0
 62
     0
 10
216.644
 20
40.7719
 30
0.0
 11
216.644
 21
26.7725
 31
0.0
  0
LINE
  8
0
 62
     0
 10
216.644
 20
26.7725
 30
0.0
 11
202.645
 21
26.7725
 31
0.0
  0
LINE
  8
0
 62
     0
 10
202.645
 20
26.7725
 30
0.0
 11
202.645
 21
40.7719
 31
0.0
  0
LINE
  8
0
 62
     0
 10
221.695
 20
40.7719
 30
0.0
 11
235.694
 21
40.7719
 31
0.0
  0
LINE
  8
0
 62
     0
 10
235.694
 20
40.7719
 30
0.0
 11
235.694
 21
26.7725
 31
0.0
  0
LINE
  8
0
 62
     0
 10
235.694
 20
26.7725
 30
0.0
 11
221.695
 21
26.7725
 31
0.0
  0
LINE
  8
0
 62
     0
 10
221.695
 20
26.7725
 30
0.0
 11
221.695
 21
40.7719
 31
0.0
  0
LINE
  8
0
 62
     0
 10
240.745
 20
40.7719
 30
0.0
 11
254.744
 21
40.7719
 31
0.0
  0
LINE
  8
0
 62
     0
 10
254.744
 20
40.7719
 30
0.0
 11
254.744
 21
26.7725
 31
0.0
  0
LINE
  8
0
 62
     0
 10
254.744
 20
26.7725
 30
0.0
 11
240.745
 21
26.7725
 31
0.0
  0
LINE
  8
0
 62
     0
 10
240.745
 20
26.7725
 30
0.0
 11
240.745
 21
40.7719
 31
0.0
  0
LINE
  8
0
 62
     0
 10
259.795
 20
40.7719
 30
0.0
 11
273.794
 21
40.7719
 31
0.0
  0
LINE
  8
0
 62
     0
 10
273.794
 20
40.7719
 30
0.0
 11
273.794
 21
26.7725
 31
0.0
  0
LINE
  8
0
 62
     0
 10
273.794
 20
26.7725
 30
0.0
 11
259.795
 21
26.7725
 31
0.0
  0
LINE
  8
0
 62
     0
 10
259.795
 20
26.7725
 30
0.0
 11
259.795
 21
40.7719
 31
0.0
  0
LINE
  8
0
 62
     0
 10
359.809
 20
40.7719
 30
0.0
 11
373.807
 21
40.7719
 31
0.0
  0
LINE
  8
0
 62
     0
 10
373.807
 20
40.7719
 30
0.0
 11
373.807
 21
26.7725
 31
0.0
  0
LINE
  8
0
 62
     0
 10
373.807
 20
26.7725
 30
0.0
 11
359.809
 21
26.7725
 31
0.0
  0
LINE
  8
0
 62
     0
 10
359.809
 20
26.7725
 30
0.0
 11
359.809
 21
40.7719
 31
0.0
  0
LINE
  8
0
 62
     0
 10
378.859
 20
40.7719
 30
0.0
 11
392.857
 21
40.7719
 31
0.0
  0
LINE
  8
0
 62
     0
 10
392.857
 20
40.7719
 30
0.0
 11
392.857
 21
26.7725
 31
0.0
  0
LINE
  8
0
 62
     0
 10
392.857
 20
26.7725
 30
0.0
 11
378.859
 21
26.7725
 31
0.0
  0
LINE
  8
0
 62
     0
 10
378.859
 20
26.7725
 30
0.0
 11
378.859
 21
40.7719
 31
0.0
  0
LINE
  8
0
 62
     0
 10
397.909
 20
40.7719
 30
0.0
 11
411.907
 21
40.7719
 31
0.0
  0
LINE
  8
0
 62
     0
 10
411.907
 20
40.7719
 30
0.0
 11
411.907
 21
26.7725
 31
0.0
  0
LINE
  8
0
 62
     0
 10
411.907
 20
26.7725
 30
0.0
 11
397.909
 21
26.7725
 31
0.0
  0
LINE
  8
0
 62
     0
 10
397.909
 20
26.7725
 30
0.0
 11
397.909
 21
40.7719
 31
0.0
  0
LINE
  8
0
 62
     0
 10
300.276
 20
59.8219
 30
0.0
 11
300.276
 21
55.1215
 31
0.0
  0
LINE
  8
0
 62
     0
 10
300.276
 20
55.1215
 30
0.0
 11
298.751
 21
55.1215
 31
0.0
  0
LINE
  8
0
 62
     0
 10
298.751
 20
55.1215
 30
0.0
 11
298.751
 21
58.3516
 31
0.0
  0
LINE
  8
0
 62
     0
 10
298.751
 20
58.3516
 30
0.0
 11
292.001
 21
58.3516
 31
0.0
  0
LINE
  8
0
 62
     0
 10
292.001
 20
58.3516
 30
0.0
 11
292.001
 21
55.1215
 31
0.0
  0
LINE
  8
0
 62
     0
 10
292.001
 20
55.1215
 30
0.0
 11
291.175
 21
55.1215
 31
0.0
  0
LINE
  8
0
 62
     0
 10
291.175
 20
55.1215
 30
0.0
 11
291.175
 21
52.3226
 31
0.0
  0
LINE
  8
0
 62
     0
 10
291.175
 20
52.3226
 30
0.0
 11
292.001
 21
52.3226
 31
0.0
  0
LINE
  8
0
 62
     0
 10
292.001
 20
52.3226
 30
0.0
 11
292.001
 21
46.0527
 31
0.0
  0
LINE
  8
0
 62
     0
 10
292.001
 20
46.0527
 30
0.0
 11
293.726
 21
46.0527
 31
0.0
  0
LINE
  8
0
 62
     0
 10
293.726
 20
46.0527
 30
0.0
 11
293.726
 21
44.8525
 31
0.0
  0
LINE
  8
0
 62
     0
 10
293.726
 20
44.8525
 30
0.0
 11
297.025
 21
44.8525
 31
0.0
  0
LINE
  8
0
 62
     0
 10
297.025
 20
44.8525
 30
0.0
 11
297.025
 21
46.0527
 31
0.0
  0
LINE
  8
0
 62
     0
 10
297.025
 20
46.0527
 30
0.0
 11
298.751
 21
46.0527
 31
0.0
  0
LINE
  8
0
 62
     0
 10
298.751
 20
46.0527
 30
0.0
 11
298.751
 21
50.5217
 31
0.0
  0
LINE
  8
0
 62
     0
 10
298.751
 20
50.5217
 30
0.0
 11
300.276
 21
50.5217
 31
0.0
  0
LINE
  8
0
 62
     0
 10
300.276
 20
50.5217
 30
0.0
 11
300.276
 21
45.8227
 31
0.0
  0
LINE
  8
0
 62
     0
 10
300.276
 20
45.8227
 30
0.0
 11
314.275
 21
45.8227
 31
0.0
  0
LINE
  8
0
 62
     0
 10
314.275
 20
45.8227
 30
0.0
 11
314.275
 21
50.5217
 31
0.0
  0
LINE
  8
0
 62
     0
 10
314.275
 20
50.5217
 30
0.0
 11
315.801
 21
50.5217
 31
0.0
  0
LINE
  8
0
 62
     0
 10
315.801
 20
50.5217
 30
0.0
 11
315.801
 21
46.0527
 31
0.0
  0
LINE
  8
0
 62
     0
 10
315.801
 20
46.0527
 30
0.0
 11
317.526
 21
46.0527
 31
0.0
  0
LINE
  8
0
 62
     0
 10
317.526
 20
46.0527
 30
0.0
 11
317.526
 21
44.8525
 31
0.0
  0
LINE
  8
0
 62
     0
 10
317.526
 20
44.8525
 30
0.0
 11
320.825
 21
44.8525
 31
0.0
  0
LINE
  8
0
 62
     0
 10
320.825
 20
44.8525
 30
0.0
 11
320.825
 21
46.0527
 31
0.0
  0
LINE
  8
0
 62
     0
 10
320.825
 20
46.0527
 30
0.0
 11
322.55
 21
46.0527
 31
0.0
  0
LINE
  8
0
 62
     0
 10
322.55
 20
46.0527
 30
0.0
 11
322.55
 21
52.3226
 31
0.0
  0
LINE
  8
0
 62
     0
 10
322.55
 20
52.3226
 30
0.0
 11
323.376
 21
52.3226
 31
0.0
  0
LINE
  8
0
 62
     0
 10
323.376
 20
52.3226
 30
0.0
 11
323.376
 21
55.1215
 31
0.0
  0
LINE
  8
0
 62
     0
 10
323.376
 20
55.1215
 30
0.0
 11
322.55
 21
55.1215
 31
0.0
  0
LINE
  8
0
 62
     0
 10
322.55
 20
55.1215
 30
0.0
 11
322.55
 21
58.3516
 31
0.0
  0
LINE
  8
0
 62
     0
 10
322.55
 20
58.3516
 30
0.0
 11
315.801
 21
58.3516
 31
0.0
  0
LINE
  8
0
 62
     0
 10
315.801
 20
58.3516
 30
0.0
 11
315.801
 21
55.1215
 31
0.0
  0
LINE
  8
0
 62
     0
 10
315.801
 20
55.1215
 30
0.0
 11
314.275
 21
55.1215
 31
0.0
  0
LINE
  8
0
 62
     0
 10
314.275
 20
55.1215
 30
0.0
 11
314.275
 21
59.8219
 31
0.0
  0
LINE
  8
0
 62
     0
 10
314.275
 20
59.8219
 30
0.0
 11
300.276
 21
59.8219
 31
0.0
  0
LINE
  8
0
 62
     0
 10
2.61965
 20
59.8219
 30
0.0
 11
16.6192
 21
59.8219
 31
0.0
  0
LINE
  8
0
 62
     0
 10
16.6192
 20
59.8219
 30
0.0
 11
16.6192
 21
45.8227
 31
0.0
  0
LINE
  8
0
 62
     0
 10
16.6192
 20
45.8227
 30
0.0
 11
2.61965
 21
45.8227
 31
0.0
  0
LINE
  8
0
 62
     0
 10
2.61965
 20
45.8227
 30
0.0
 11
2.61965
 21
59.8219
 31
0.0
  0
LINE
  8
0
 62
     0
 10
52.626
 20
59.8219
 30
0.0
 11
66.6253
 21
59.8219
 31
0.0
  0
LINE
  8
0
 62
     0
 10
66.6253
 20
59.8219
 30
0.0
 11
66.6253
 21
45.8227
 31
0.0
  0
LINE
  8
0
 62
     0
 10
66.6253
 20
45.8227
 30
0.0
 11
52.626
 21
45.8227
 31
0.0
  0
LINE
  8
0
 62
     0
 10
52.626
 20
45.8227
 30
0.0
 11
52.626
 21
59.8219
 31
0.0
  0
LINE
  8
0
 62
     0
 10
78.8197
 20
59.8219
 30
0.0
 11
92.819
 21
59.8219
 31
0.0
  0
LINE
  8
0
 62
     0
 10
92.819
 20
59.8219
 30
0.0
 11
92.819
 21
45.8227
 31
0.0
  0
LINE
  8
0
 62
     0
 10
92.819
 20
45.8227
 30
0.0
 11
78.8197
 21
45.8227
 31
0.0
  0
LINE
  8
0
 62
     0
 10
78.8197
 20
45.8227
 30
0.0
 11
78.8197
 21
59.8219
 31
0.0
  0
LINE
  8
0
 62
     0
 10
97.8683
 20
59.8219
 30
0.0
 11
111.869
 21
59.8219
 31
0.0
  0
LINE
  8
0
 62
     0
 10
111.869
 20
59.8219
 30
0.0
 11
111.869
 21
45.8227
 31
0.0
  0
LINE
  8
0
 62
     0
 10
111.869
 20
45.8227
 30
0.0
 11
97.8683
 21
45.8227
 31
0.0
  0
LINE
  8
0
 62
     0
 10
97.8683
 20
45.8227
 30
0.0
 11
97.8683
 21
59.8219
 31
0.0
  0
LINE
  8
0
 62
     0
 10
116.918
 20
59.8219
 30
0.0
 11
130.919
 21
59.8219
 31
0.0
  0
LINE
  8
0
 62
     0
 10
130.919
 20
59.8219
 30
0.0
 11
130.919
 21
45.8227
 31
0.0
  0
LINE
  8
0
 62
     0
 10
130.919
 20
45.8227
 30
0.0
 11
116.918
 21
45.8227
 31
0.0
  0
LINE
  8
0
 62
     0
 10
116.918
 20
45.8227
 30
0.0
 11
116.918
 21
59.8219
 31
0.0
  0
LINE
  8
0
 62
     0
 10
135.97
 20
59.8219
 30
0.0
 11
149.969
 21
59.8219
 31
0.0
  0
LINE
  8
0
 62
     0
 10
149.969
 20
59.8219
 30
0.0
 11
149.969
 21
45.8227
 31
0.0
  0
LINE
  8
0
 62
     0
 10
149.969
 20
45.8227
 30
0.0
 11
135.97
 21
45.8227
 31
0.0
  0
LINE
  8
0
 62
     0
 10
135.97
 20
45.8227
 30
0.0
 11
135.97
 21
59.8219
 31
0.0
  0
LINE
  8
0
 62
     0
 10
155.02
 20
59.8219
 30
0.0
 11
169.019
 21
59.8219
 31
0.0
  0
LINE
  8
0
 62
     0
 10
169.019
 20
59.8219
 30
0.0
 11
169.019
 21
45.8227
 31
0.0
  0
LINE
  8
0
 62
     0
 10
169.019
 20
45.8227
 30
0.0
 11
155.02
 21
45.8227
 31
0.0
  0
LINE
  8
0
 62
     0
 10
155.02
 20
45.8227
 30
0.0
 11
155.02
 21
59.8219
 31
0.0
  0
LINE
  8
0
 62
     0
 10
174.07
 20
59.8219
 30
0.0
 11
188.069
 21
59.8219
 31
0.0
  0
LINE
  8
0
 62
     0
 10
188.069
 20
59.8219
 30
0.0
 11
188.069
 21
45.8227
 31
0.0
  0
LINE
  8
0
 62
     0
 10
188.069
 20
45.8227
 30
0.0
 11
174.07
 21
45.8227
 31
0.0
  0
LINE
  8
0
 62
     0
 10
174.07
 20
45.8227
 30
0.0
 11
174.07
 21
59.8219
 31
0.0
  0
LINE
  8
0
 62
     0
 10
193.12
 20
59.8219
 30
0.0
 11
207.119
 21
59.8219
 31
0.0
  0
LINE
  8
0
 62
     0
 10
207.119
 20
59.8219
 30
0.0
 11
207.119
 21
45.8227
 31
0.0
  0
LINE
  8
0
 62
     0
 10
207.119
 20
45.8227
 30
0.0
 11
193.12
 21
45.8227
 31
0.0
  0
LINE
  8
0
 62
     0
 10
193.12
 20
45.8227
 30
0.0
 11
193.12
 21
59.8219
 31
0.0
  0
LINE
  8
0
 62
     0
 10
212.17
 20
59.8219
 30
0.0
 11
226.169
 21
59.8219
 31
0.0
  0
LINE
  8
0
 62
     0
 10
226.169
 20
59.8219
 30
0.0
 11
226.169
 21
45.8227
 31
0.0
  0
LINE
  8
0
 62
     0
 10
226.169
 20
45.8227
 30
0.0
 11
212.17
 21
45.8227
 31
0.0
  0
LINE
  8
0
 62
     0
 10
212.17
 20
45.8227
 30
0.0
 11
212.17
 21
59.8219
 31
0.0
  0
LINE
  8
0
 62
     0
 10
231.22
 20
59.8219
 30
0.0
 11
245.219
 21
59.8219
 31
0.0
  0
LINE
  8
0
 62
     0
 10
245.219
 20
59.8219
 30
0.0
 11
245.219
 21
45.8227
 31
0.0
  0
LINE
  8
0
 62
     0
 10
245.219
 20
45.8227
 30
0.0
 11
231.22
 21
45.8227
 31
0.0
  0
LINE
  8
0
 62
     0
 10
231.22
 20
45.8227
 30
0.0
 11
231.22
 21
59.8219
 31
0.0
  0
LINE
  8
0
 62
     0
 10
250.27
 20
59.8219
 30
0.0
 11
264.269
 21
59.8219
 31
0.0
  0
LINE
  8
0
 62
     0
 10
264.269
 20
59.8219
 30
0.0
 11
264.269
 21
45.8227
 31
0.0
  0
LINE
  8
0
 62
     0
 10
264.269
 20
45.8227
 30
0.0
 11
250.27
 21
45.8227
 31
0.0
  0
LINE
  8
0
 62
     0
 10
250.27
 20
45.8227
 30
0.0
 11
250.27
 21
59.8219
 31
0.0
  0
LINE
  8
0
 62
     0
 10
269.32
 20
59.8219
 30
0.0
 11
283.319
 21
59.8219
 31
0.0
  0
LINE
  8
0
 62
     0
 10
283.319
 20
59.8219
 30
0.0
 11
283.319
 21
45.8227
 31
0.0
  0
LINE
  8
0
 62
     0
 10
283.319
 20
45.8227
 30
0.0
 11
269.32
 21
45.8227
 31
0.0
  0
LINE
  8
0
 62
     0
 10
269.32
 20
45.8227
 30
0.0
 11
269.32
 21
59.8219
 31
0.0
  0
LINE
  8
0
 62
     0
 10
335.995
 20
59.8219
 30
0.0
 11
349.994
 21
59.8219
 31
0.0
  0
LINE
  8
0
 62
     0
 10
349.994
 20
59.8219
 30
0.0
 11
349.994
 21
45.8227
 31
0.0
  0
LINE
  8
0
 62
     0
 10
349.994
 20
45.8227
 30
0.0
 11
335.995
 21
45.8227
 31
0.0
  0
LINE
  8
0
 62
     0
 10
335.995
 20
45.8227
 30
0.0
 11
335.995
 21
59.8219
 31
0.0
  0
LINE
  8
0
 62
     0
 10
359.809
 20
59.8219
 30
0.0
 11
373.807
 21
59.8219
 31
0.0
  0
LINE
  8
0
 62
     0
 10
373.807
 20
59.8219
 30
0.0
 11
373.807
 21
45.8227
 31
0.0
  0
LINE
  8
0
 62
     0
 10
373.807
 20
45.8227
 30
0.0
 11
359.809
 21
45.8227
 31
0.0
  0
LINE
  8
0
 62
     0
 10
359.809
 20
45.8227
 30
0.0
 11
359.809
 21
59.8219
 31
0.0
  0
LINE
  8
0
 62
     0
 10
378.859
 20
59.8219
 30
0.0
 11
392.857
 21
59.8219
 31
0.0
  0
LINE
  8
0
 62
     0
 10
392.857
 20
59.8219
 30
0.0
 11
392.857
 21
45.8227
 31
0.0
  0
LINE
  8
0
 62
     0
 10
392.857
 20
45.8227
 30
0.0
 11
378.859
 21
45.8227
 31
0.0
  0
LINE
  8
0
 62
     0
 10
378.859
 20
45.8227
 30
0.0
 11
378.859
 21
59.8219
 31
0.0
  0
LINE
  8
0
 62
     0
 10
397.909
 20
59.8219
 30
0.0
 11
411.907
 21
59.8219
 31
0.0
  0
LINE
  8
0
 62
     0
 10
411.907
 20
59.8219
 30
0.0
 11
411.907
 21
45.8227
 31
0.0
  0
LINE
  8
0
 62
     0
 10
411.907
 20
45.8227
 30
0.0
 11
397.909
 21
45.8227
 31
0.0
  0
LINE
  8
0
 62
     0
 10
397.909
 20
45.8227
 30
0.0
 11
397.909
 21
59.8219
 31
0.0
  0
LINE
  8
0
 62
     0
 10
423.457
 20
78.4475
 30
0.0
 11
423.457
 21
77.622
 31
0.0
  0
LINE
  8
0
 62
     0
 10
423.457
 20
77.622
 30
0.0
 11
417.184
 21
77.622
 31
0.0
  0
LINE
  8
0
 62
     0
 10
417.184
 20
77.622
 30
0.0
 11
417.184
 21
75.897
 31
0.0
  0
LINE
  8
0
 62
     0
 10
417.184
 20
75.897
 30
0.0
 11
415.989
 21
75.897
 31
0.0
  0
LINE
  8
0
 62
     0
 10
415.989
 20
75.897
 30
0.0
 11
415.989
 21
72.5978
 31
0.0
  0
LINE
  8
0
 62
     0
 10
415.989
 20
72.5978
 30
0.0
 11
417.184
 21
72.5978
 31
0.0
  0
LINE
  8
0
 62
     0
 10
417.184
 20
72.5978
 30
0.0
 11
417.184
 21
70.8723
 31
0.0
  0
LINE
  8
0
 62
     0
 10
417.184
 20
70.8723
 30
0.0
 11
421.658
 21
70.8723
 31
0.0
  0
LINE
  8
0
 62
     0
 10
421.658
 20
70.8723
 30
0.0
 11
421.658
 21
69.3469
 31
0.0
  0
LINE
  8
0
 62
     0
 10
421.658
 20
69.3469
 30
0.0
 11
416.959
 21
69.3469
 31
0.0
  0
LINE
  8
0
 62
     0
 10
416.959
 20
69.3469
 30
0.0
 11
416.959
 21
55.3477
 31
0.0
  0
LINE
  8
0
 62
     0
 10
416.959
 20
55.3477
 30
0.0
 11
421.658
 21
55.3477
 31
0.0
  0
LINE
  8
0
 62
     0
 10
421.658
 20
55.3477
 30
0.0
 11
421.658
 21
53.8219
 31
0.0
  0
LINE
  8
0
 62
     0
 10
421.658
 20
53.8219
 30
0.0
 11
417.184
 21
53.8219
 31
0.0
  0
LINE
  8
0
 62
     0
 10
417.184
 20
53.8219
 30
0.0
 11
417.184
 21
52.0968
 31
0.0
  0
LINE
  8
0
 62
     0
 10
417.184
 20
52.0968
 30
0.0
 11
415.989
 21
52.0968
 31
0.0
  0
LINE
  8
0
 62
     0
 10
415.989
 20
52.0968
 30
0.0
 11
415.989
 21
48.7976
 31
0.0
  0
LINE
  8
0
 62
     0
 10
415.989
 20
48.7976
 30
0.0
 11
417.184
 21
48.7976
 31
0.0
  0
LINE
  8
0
 62
     0
 10
417.184
 20
48.7976
 30
0.0
 11
417.184
 21
47.0726
 31
0.0
  0
LINE
  8
0
 62
     0
 10
417.184
 20
47.0726
 30
0.0
 11
423.457
 21
47.0726
 31
0.0
  0
LINE
  8
0
 62
     0
 10
423.457
 20
47.0726
 30
0.0
 11
423.457
 21
46.247
 31
0.0
  0
LINE
  8
0
 62
     0
 10
423.457
 20
46.247
 30
0.0
 11
426.258
 21
46.247
 31
0.0
  0
LINE
  8
0
 62
     0
 10
426.258
 20
46.247
 30
0.0
 11
426.258
 21
47.0726
 31
0.0
  0
LINE
  8
0
 62
     0
 10
426.258
 20
47.0726
 30
0.0
 11
429.486
 21
47.0726
 31
0.0
  0
LINE
  8
0
 62
     0
 10
429.486
 20
47.0726
 30
0.0
 11
429.486
 21
53.8219
 31
0.0
  0
LINE
  8
0
 62
     0
 10
429.486
 20
53.8219
 30
0.0
 11
426.258
 21
53.8219
 31
0.0
  0
LINE
  8
0
 62
     0
 10
426.258
 20
53.8219
 30
0.0
 11
426.258
 21
55.3477
 31
0.0
  0
LINE
  8
0
 62
     0
 10
426.258
 20
55.3477
 30
0.0
 11
430.957
 21
55.3477
 31
0.0
  0
LINE
  8
0
 62
     0
 10
430.957
 20
55.3477
 30
0.0
 11
430.957
 21
69.3469
 31
0.0
  0
LINE
  8
0
 62
     0
 10
430.957
 20
69.3469
 30
0.0
 11
426.258
 21
69.3469
 31
0.0
  0
LINE
  8
0
 62
     0
 10
426.258
 20
69.3469
 30
0.0
 11
426.258
 21
70.8723
 31
0.0
  0
LINE
  8
0
 62
     0
 10
426.258
 20
70.8723
 30
0.0
 11
429.486
 21
70.8723
 31
0.0
  0
LINE
  8
0
 62
     0
 10
429.486
 20
70.8723
 30
0.0
 11
429.486
 21
77.622
 31
0.0
  0
LINE
  8
0
 62
     0
 10
429.486
 20
77.622
 30
0.0
 11
426.258
 21
77.622
 31
0.0
  0
LINE
  8
0
 62
     0
 10
426.258
 20
77.622
 30
0.0
 11
426.258
 21
78.4475
 31
0.0
  0
LINE
  8
0
 62
     0
 10
426.258
 20
78.4475
 30
0.0
 11
423.457
 21
78.4475
 31
0.0
  0
LINE
  8
0
 62
     0
 10
2.61965
 20
78.8719
 30
0.0
 11
16.6192
 21
78.8719
 31
0.0
  0
LINE
  8
0
 62
     0
 10
16.6192
 20
78.8719
 30
0.0
 11
16.6192
 21
64.8727
 31
0.0
  0
LINE
  8
0
 62
     0
 10
16.6192
 20
64.8727
 30
0.0
 11
2.61965
 21
64.8727
 31
0.0
  0
LINE
  8
0
 62
     0
 10
2.61965
 20
64.8727
 30
0.0
 11
2.61965
 21
78.8719
 31
0.0
  0
LINE
  8
0
 62
     0
 10
50.2447
 20
78.8719
 30
0.0
 11
64.244
 21
78.8719
 31
0.0
  0
LINE
  8
0
 62
     0
 10
64.244
 20
78.8719
 30
0.0
 11
64.244
 21
64.8727
 31
0.0
  0
LINE
  8
0
 62
     0
 10
64.244
 20
64.8727
 30
0.0
 11
50.2447
 21
64.8727
 31
0.0
  0
LINE
  8
0
 62
     0
 10
50.2447
 20
64.8727
 30
0.0
 11
50.2447
 21
78.8719
 31
0.0
  0
LINE
  8
0
 62
     0
 10
74.0572
 20
78.8719
 30
0.0
 11
88.0565
 21
78.8719
 31
0.0
  0
LINE
  8
0
 62
     0
 10
88.0565
 20
78.8719
 30
0.0
 11
88.0565
 21
64.8727
 31
0.0
  0
LINE
  8
0
 62
     0
 10
88.0565
 20
64.8727
 30
0.0
 11
74.0572
 21
64.8727
 31
0.0
  0
LINE
  8
0
 62
     0
 10
74.0572
 20
64.8727
 30
0.0
 11
74.0572
 21
78.8719
 31
0.0
  0
LINE
  8
0
 62
     0
 10
93.1072
 20
78.8719
 30
0.0
 11
107.107
 21
78.8719
 31
0.0
  0
LINE
  8
0
 62
     0
 10
107.107
 20
78.8719
 30
0.0
 11
107.107
 21
64.8727
 31
0.0
  0
LINE
  8
0
 62
     0
 10
107.107
 20
64.8727
 30
0.0
 11
93.1072
 21
64.8727
 31
0.0
  0
LINE
  8
0
 62
     0
 10
93.1072
 20
64.8727
 30
0.0
 11
93.1072
 21
78.8719
 31
0.0
  0
LINE
  8
0
 62
     0
 10
112.157
 20
78.8719
 30
0.0
 11
126.157
 21
78.8719
 31
0.0
  0
LINE
  8
0
 62
     0
 10
126.157
 20
78.8719
 30
0.0
 11
126.157
 21
64.8727
 31
0.0
  0
LINE
  8
0
 62
     0
 10
126.157
 20
64.8727
 30
0.0
 11
112.157
 21
64.8727
 31
0.0
  0
LINE
  8
0
 62
     0
 10
112.157
 20
64.8727
 30
0.0
 11
112.157
 21
78.8719
 31
0.0
  0
LINE
  8
0
 62
     0
 10
131.207
 20
78.8719
 30
0.0
 11
145.207
 21
78.8719
 31
0.0
  0
LINE
  8
0
 62
     0
 10
145.207
 20
78.8719
 30
0.0
 11
145.207
 21
64.8727
 31
0.0
  0
LINE
  8
0
 62
     0
 10
145.207
 20
64.8727
 30
0.0
 11
131.207
 21
64.8727
 31
0.0
  0
LINE
  8
0
 62
     0
 10
131.207
 20
64.8727
 30
0.0
 11
131.207
 21
78.8719
 31
0.0
  0
LINE
  8
0
 62
     0
 10
150.257
 20
78.8719
 30
0.0
 11
164.257
 21
78.8719
 31
0.0
  0
LINE
  8
0
 62
     0
 10
164.257
 20
78.8719
 30
0.0
 11
164.257
 21
64.8727
 31
0.0
  0
LINE
  8
0
 62
     0
 10
164.257
 20
64.8727
 30
0.0
 11
150.257
 21
64.8727
 31
0.0
  0
LINE
  8
0
 62
     0
 10
150.257
 20
64.8727
 30
0.0
 11
150.257
 21
78.8719
 31
0.0
  0
LINE
  8
0
 62
     0
 10
169.307
 20
78.8719
 30
0.0
 11
183.307
 21
78.8719
 31
0.0
  0
LINE
  8
0
 62
     0
 10
183.307
 20
78.8719
 30
0.0
 11
183.307
 21
64.8727
 31
0.0
  0
LINE
  8
0
 62
     0
 10
183.307
 20
64.8727
 30
0.0
 11
169.307
 21
64.8727
 31
0.0
  0
LINE
  8
0
 62
     0
 10
169.307
 20
64.8727
 30
0.0
 11
169.307
 21
78.8719
 31
0.0
  0
LINE
  8
0
 62
     0
 10
188.357
 20
78.8719
 30
0.0
 11
202.357
 21
78.8719
 31
0.0
  0
LINE
  8
0
 62
     0
 10
202.357
 20
78.8719
 30
0.0
 11
202.357
 21
64.8727
 31
0.0
  0
LINE
  8
0
 62
     0
 10
202.357
 20
64.8727
 30
0.0
 11
188.357
 21
64.8727
 31
0.0
  0
LINE
  8
0
 62
     0
 10
188.357
 20
64.8727
 30
0.0
 11
188.357
 21
78.8719
 31
0.0
  0
LINE
  8
0
 62
     0
 10
207.407
 20
78.8719
 30
0.0
 11
221.407
 21
78.8719
 31
0.0
  0
LINE
  8
0
 62
     0
 10
221.407
 20
78.8719
 30
0.0
 11
221.407
 21
64.8727
 31
0.0
  0
LINE
  8
0
 62
     0
 10
221.407
 20
64.8727
 30
0.0
 11
207.407
 21
64.8727
 31
0.0
  0
LINE
  8
0
 62
     0
 10
207.407
 20
64.8727
 30
0.0
 11
207.407
 21
78.8719
 31
0.0
  0
LINE
  8
0
 62
     0
 10
226.457
 20
78.8719
 30
0.0
 11
240.457
 21
78.8719
 31
0.0
  0
LINE
  8
0
 62
     0
 10
240.457
 20
78.8719
 30
0.0
 11
240.457
 21
64.8727
 31
0.0
  0
LINE
  8
0
 62
     0
 10
240.457
 20
64.8727
 30
0.0
 11
226.457
 21
64.8727
 31
0.0
  0
LINE
  8
0
 62
     0
 10
226.457
 20
64.8727
 30
0.0
 11
226.457
 21
78.8719
 31
0.0
  0
LINE
  8
0
 62
     0
 10
245.507
 20
78.8719
 30
0.0
 11
259.507
 21
78.8719
 31
0.0
  0
LINE
  8
0
 62
     0
 10
259.507
 20
78.8719
 30
0.0
 11
259.507
 21
64.8727
 31
0.0
  0
LINE
  8
0
 62
     0
 10
259.507
 20
64.8727
 30
0.0
 11
245.507
 21
64.8727
 31
0.0
  0
LINE
  8
0
 62
     0
 10
245.507
 20
64.8727
 30
0.0
 11
245.507
 21
78.8719
 31
0.0
  0
LINE
  8
0
 62
     0
 10
264.557
 20
78.8719
 30
0.0
 11
278.557
 21
78.8719
 31
0.0
  0
LINE
  8
0
 62
     0
 10
278.557
 20
78.8719
 30
0.0
 11
278.557
 21
64.8727
 31
0.0
  0
LINE
  8
0
 62
     0
 10
278.557
 20
64.8727
 30
0.0
 11
264.557
 21
64.8727
 31
0.0
  0
LINE
  8
0
 62
     0
 10
264.557
 20
64.8727
 30
0.0
 11
264.557
 21
78.8719
 31
0.0
  0
LINE
  8
0
 62
     0
 10
283.607
 20
78.8719
 30
0.0
 11
297.607
 21
78.8719
 31
0.0
  0
LINE
  8
0
 62
     0
 10
297.607
 20
78.8719
 30
0.0
 11
297.607
 21
64.8727
 31
0.0
  0
LINE
  8
0
 62
     0
 10
297.607
 20
64.8727
 30
0.0
 11
283.607
 21
64.8727
 31
0.0
  0
LINE
  8
0
 62
     0
 10
283.607
 20
64.8727
 30
0.0
 11
283.607
 21
78.8719
 31
0.0
  0
LINE
  8
0
 62
     0
 10
307.42
 20
78.8719
 30
0.0
 11
321.419
 21
78.8719
 31
0.0
  0
LINE
  8
0
 62
     0
 10
321.419
 20
78.8719
 30
0.0
 11
321.419
 21
64.8727
 31
0.0
  0
LINE
  8
0
 62
     0
 10
321.419
 20
64.8727
 30
0.0
 11
307.42
 21
64.8727
 31
0.0
  0
LINE
  8
0
 62
     0
 10
307.42
 20
64.8727
 30
0.0
 11
307.42
 21
78.8719
 31
0.0
  0
LINE
  8
0
 62
     0
 10
335.995
 20
78.8719
 30
0.0
 11
349.994
 21
78.8719
 31
0.0
  0
LINE
  8
0
 62
     0
 10
349.994
 20
78.8719
 30
0.0
 11
349.994
 21
64.8727
 31
0.0
  0
LINE
  8
0
 62
     0
 10
349.994
 20
64.8727
 30
0.0
 11
335.995
 21
64.8727
 31
0.0
  0
LINE
  8
0
 62
     0
 10
335.995
 20
64.8727
 30
0.0
 11
335.995
 21
78.8719
 31
0.0
  0
LINE
  8
0
 62
     0
 10
359.809
 20
78.8719
 30
0.0
 11
373.807
 21
78.8719
 31
0.0
  0
LINE
  8
0
 62
     0
 10
373.807
 20
78.8719
 30
0.0
 11
373.807
 21
64.8727
 31
0.0
  0
LINE
  8
0
 62
     0
 10
373.807
 20
64.8727
 30
0.0
 11
359.809
 21
64.8727
 31
0.0
  0
LINE
  8
0
 62
     0
 10
359.809
 20
64.8727
 30
0.0
 11
359.809
 21
78.8719
 31
0.0
  0
LINE
  8
0
 62
     0
 10
378.859
 20
78.8719
 30
0.0
 11
392.857
 21
78.8719
 31
0.0
  0
LINE
  8
0
 62
     0
 10
392.857
 20
78.8719
 30
0.0
 11
392.857
 21
64.8727
 31
0.0
  0
LINE
  8
0
 62
     0
 10
392.857
 20
64.8727
 30
0.0
 11
378.859
 21
64.8727
 31
0.0
  0
LINE
  8
0
 62
     0
 10
378.859
 20
64.8727
 30
0.0
 11
378.859
 21
78.8719
 31
0.0
  0
LINE
  8
0
 62
     0
 10
397.909
 20
78.8719
 30
0.0
 11
411.907
 21
78.8719
 31
0.0
  0
LINE
  8
0
 62
     0
 10
411.907
 20
78.8719
 30
0.0
 11
411.907
 21
64.8727
 31
0.0
  0
LINE
  8
0
 62
     0
 10
411.907
 20
64.8727
 30
0.0
 11
397.909
 21
64.8727
 31
0.0
  0
LINE
  8
0
 62
     0
 10
397.909
 20
64.8727
 30
0.0
 11
397.909
 21
78.8719
 31
0.0
  0
LINE
  8
0
 62
     0
 10
302.657
 20
97.9219
 30
0.0
 11
302.657
 21
93.2215
 31
0.0
  0
LINE
  8
0
 62
     0
 10
302.657
 20
93.2215
 30
0.0
 11
301.132
 21
93.2215
 31
0.0
  0
LINE
  8
0
 62
     0
 10
301.132
 20
93.2215
 30
0.0
 11
301.132
 21
96.4516
 31
0.0
  0
LINE
  8
0
 62
     0
 10
301.132
 20
96.4516
 30
0.0
 11
294.382
 21
96.4516
 31
0.0
  0
LINE
  8
0
 62
     0
 10
294.382
 20
96.4516
 30
0.0
 11
294.382
 21
93.2215
 31
0.0
  0
LINE
  8
0
 62
     0
 10
294.382
 20
93.2215
 30
0.0
 11
293.557
 21
93.2215
 31
0.0
  0
LINE
  8
0
 62
     0
 10
293.557
 20
93.2215
 30
0.0
 11
293.557
 21
90.4226
 31
0.0
  0
LINE
  8
0
 62
     0
 10
293.557
 20
90.4226
 30
0.0
 11
294.382
 21
90.4226
 31
0.0
  0
LINE
  8
0
 62
     0
 10
294.382
 20
90.4226
 30
0.0
 11
294.382
 21
84.1527
 31
0.0
  0
LINE
  8
0
 62
     0
 10
294.382
 20
84.1527
 30
0.0
 11
296.106
 21
84.1527
 31
0.0
  0
LINE
  8
0
 62
     0
 10
296.106
 20
84.1527
 30
0.0
 11
296.106
 21
82.9525
 31
0.0
  0
LINE
  8
0
 62
     0
 10
296.106
 20
82.9525
 30
0.0
 11
299.406
 21
82.9525
 31
0.0
  0
LINE
  8
0
 62
     0
 10
299.406
 20
82.9525
 30
0.0
 11
299.406
 21
84.1527
 31
0.0
  0
LINE
  8
0
 62
     0
 10
299.406
 20
84.1527
 30
0.0
 11
301.132
 21
84.1527
 31
0.0
  0
LINE
  8
0
 62
     0
 10
301.132
 20
84.1527
 30
0.0
 11
301.132
 21
88.6217
 31
0.0
  0
LINE
  8
0
 62
     0
 10
301.132
 20
88.6217
 30
0.0
 11
302.657
 21
88.6217
 31
0.0
  0
LINE
  8
0
 62
     0
 10
302.657
 20
88.6217
 30
0.0
 11
302.657
 21
83.9227
 31
0.0
  0
LINE
  8
0
 62
     0
 10
302.657
 20
83.9227
 30
0.0
 11
316.657
 21
83.9227
 31
0.0
  0
LINE
  8
0
 62
     0
 10
316.657
 20
83.9227
 30
0.0
 11
316.657
 21
88.6217
 31
0.0
  0
LINE
  8
0
 62
     0
 10
316.657
 20
88.6217
 30
0.0
 11
318.182
 21
88.6217
 31
0.0
  0
LINE
  8
0
 62
     0
 10
318.182
 20
88.6217
 30
0.0
 11
318.182
 21
84.1527
 31
0.0
  0
LINE
  8
0
 62
     0
 10
318.182
 20
84.1527
 30
0.0
 11
319.906
 21
84.1527
 31
0.0
  0
LINE
  8
0
 62
     0
 10
319.906
 20
84.1527
 30
0.0
 11
319.906
 21
82.9525
 31
0.0
  0
LINE
  8
0
 62
     0
 10
319.906
 20
82.9525
 30
0.0
 11
323.207
 21
82.9525
 31
0.0
  0
LINE
  8
0
 62
     0
 10
323.207
 20
82.9525
 30
0.0
 11
323.207
 21
84.1527
 31
0.0
  0
LINE
  8
0
 62
     0
 10
323.207
 20
84.1527
 30
0.0
 11
324.932
 21
84.1527
 31
0.0
  0
LINE
  8
0
 62
     0
 10
324.932
 20
84.1527
 30
0.0
 11
324.932
 21
90.4226
 31
0.0
  0
LINE
  8
0
 62
     0
 10
324.932
 20
90.4226
 30
0.0
 11
325.756
 21
90.4226
 31
0.0
  0
LINE
  8
0
 62
     0
 10
325.756
 20
90.4226
 30
0.0
 11
325.756
 21
93.2215
 31
0.0
  0
LINE
  8
0
 62
     0
 10
325.756
 20
93.2215
 30
0.0
 11
324.932
 21
93.2215
 31
0.0
  0
LINE
  8
0
 62
     0
 10
324.932
 20
93.2215
 30
0.0
 11
324.932
 21
96.4516
 31
0.0
  0
LINE
  8
0
 62
     0
 10
324.932
 20
96.4516
 30
0.0
 11
318.182
 21
96.4516
 31
0.0
  0
LINE
  8
0
 62
     0
 10
318.182
 20
96.4516
 30
0.0
 11
318.182
 21
93.2215
 31
0.0
  0
LINE
  8
0
 62
     0
 10
318.182
 20
93.2215
 30
0.0
 11
316.657
 21
93.2215
 31
0.0
  0
LINE
  8
0
 62
     0
 10
316.657
 20
93.2215
 30
0.0
 11
316.657
 21
97.9219
 31
0.0
  0
LINE
  8
0
 62
     0
 10
316.657
 20
97.9219
 30
0.0
 11
302.657
 21
97.9219
 31
0.0
  0
LINE
  8
0
 62
     0
 10
2.61965
 20
97.9219
 30
0.0
 11
16.6192
 21
97.9219
 31
0.0
  0
LINE
  8
0
 62
     0
 10
16.6192
 20
97.9219
 30
0.0
 11
16.6192
 21
83.9227
 31
0.0
  0
LINE
  8
0
 62
     0
 10
16.6192
 20
83.9227
 30
0.0
 11
2.61965
 21
83.9227
 31
0.0
  0
LINE
  8
0
 62
     0
 10
2.61965
 20
83.9227
 30
0.0
 11
2.61965
 21
97.9219
 31
0.0
  0
LINE
  8
0
 62
     0
 10
45.4822
 20
97.9219
 30
0.0
 11
59.4815
 21
97.9219
 31
0.0
  0
LINE
  8
0
 62
     0
 10
59.4815
 20
97.9219
 30
0.0
 11
59.4815
 21
83.9227
 31
0.0
  0
LINE
  8
0
 62
     0
 10
59.4815
 20
83.9227
 30
0.0
 11
45.4822
 21
83.9227
 31
0.0
  0
LINE
  8
0
 62
     0
 10
45.4822
 20
83.9227
 30
0.0
 11
45.4822
 21
97.9219
 31
0.0
  0
LINE
  8
0
 62
     0
 10
64.5322
 20
97.9219
 30
0.0
 11
78.5315
 21
97.9219
 31
0.0
  0
LINE
  8
0
 62
     0
 10
78.5315
 20
97.9219
 30
0.0
 11
78.5315
 21
83.9227
 31
0.0
  0
LINE
  8
0
 62
     0
 10
78.5315
 20
83.9227
 30
0.0
 11
64.5322
 21
83.9227
 31
0.0
  0
LINE
  8
0
 62
     0
 10
64.5322
 20
83.9227
 30
0.0
 11
64.5322
 21
97.9219
 31
0.0
  0
LINE
  8
0
 62
     0
 10
83.5822
 20
97.9219
 30
0.0
 11
97.5815
 21
97.9219
 31
0.0
  0
LINE
  8
0
 62
     0
 10
97.5815
 20
97.9219
 30
0.0
 11
97.5815
 21
83.9227
 31
0.0
  0
LINE
  8
0
 62
     0
 10
97.5815
 20
83.9227
 30
0.0
 11
83.5822
 21
83.9227
 31
0.0
  0
LINE
  8
0
 62
     0
 10
83.5822
 20
83.9227
 30
0.0
 11
83.5822
 21
97.9219
 31
0.0
  0
LINE
  8
0
 62
     0
 10
102.632
 20
97.9219
 30
0.0
 11
116.632
 21
97.9219
 31
0.0
  0
LINE
  8
0
 62
     0
 10
116.632
 20
97.9219
 30
0.0
 11
116.632
 21
83.9227
 31
0.0
  0
LINE
  8
0
 62
     0
 10
116.632
 20
83.9227
 30
0.0
 11
102.632
 21
83.9227
 31
0.0
  0
LINE
  8
0
 62
     0
 10
102.632
 20
83.9227
 30
0.0
 11
102.632
 21
97.9219
 31
0.0
  0
LINE
  8
0
 62
     0
 10
121.682
 20
97.9219
 30
0.0
 11
135.682
 21
97.9219
 31
0.0
  0
LINE
  8
0
 62
     0
 10
135.682
 20
97.9219
 30
0.0
 11
135.682
 21
83.9227
 31
0.0
  0
LINE
  8
0
 62
     0
 10
135.682
 20
83.9227
 30
0.0
 11
121.682
 21
83.9227
 31
0.0
  0
LINE
  8
0
 62
     0
 10
121.682
 20
83.9227
 30
0.0
 11
121.682
 21
97.9219
 31
0.0
  0
LINE
  8
0
 62
     0
 10
140.732
 20
97.9219
 30
0.0
 11
154.732
 21
97.9219
 31
0.0
  0
LINE
  8
0
 62
     0
 10
154.732
 20
97.9219
 30
0.0
 11
154.732
 21
83.9227
 31
0.0
  0
LINE
  8
0
 62
     0
 10
154.732
 20
83.9227
 30
0.0
 11
140.732
 21
83.9227
 31
0.0
  0
LINE
  8
0
 62
     0
 10
140.732
 20
83.9227
 30
0.0
 11
140.732
 21
97.9219
 31
0.0
  0
LINE
  8
0
 62
     0
 10
159.782
 20
97.9219
 30
0.0
 11
173.782
 21
97.9219
 31
0.0
  0
LINE
  8
0
 62
     0
 10
173.782
 20
97.9219
 30
0.0
 11
173.782
 21
83.9227
 31
0.0
  0
LINE
  8
0
 62
     0
 10
173.782
 20
83.9227
 30
0.0
 11
159.782
 21
83.9227
 31
0.0
  0
LINE
  8
0
 62
     0
 10
159.782
 20
83.9227
 30
0.0
 11
159.782
 21
97.9219
 31
0.0
  0
LINE
  8
0
 62
     0
 10
178.832
 20
97.9219
 30
0.0
 11
192.832
 21
97.9219
 31
0.0
  0
LINE
  8
0
 62
     0
 10
192.832
 20
97.9219
 30
0.0
 11
192.832
 21
83.9227
 31
0.0
  0
LINE
  8
0
 62
     0
 10
192.832
 20
83.9227
 30
0.0
 11
178.832
 21
83.9227
 31
0.0
  0
LINE
  8
0
 62
     0
 10
178.832
 20
83.9227
 30
0.0
 11
178.832
 21
97.9219
 31
0.0
  0
LINE
  8
0
 62
     0
 10
197.882
 20
97.9219
 30
0.0
 11
211.882
 21
97.9219
 31
0.0
  0
LINE
  8
0
 62
     0
 10
211.882
 20
97.9219
 30
0.0
 11
211.882
 21
83.9227
 31
0.0
  0
LINE
  8
0
 62
     0
 10
211.882
 20
83.9227
 30
0.0
 11
197.882
 21
83.9227
 31
0.0
  0
LINE
  8
0
 62
     0
 10
197.882
 20
83.9227
 30
0.0
 11
197.882
 21
97.9219
 31
0.0
  0
LINE
  8
0
 62
     0
 10
216.932
 20
97.9219
 30
0.0
 11
230.932
 21
97.9219
 31
0.0
  0
LINE
  8
0
 62
     0
 10
230.932
 20
97.9219
 30
0.0
 11
230.932
 21
83.9227
 31
0.0
  0
LINE
  8
0
 62
     0
 10
230.932
 20
83.9227
 30
0.0
 11
216.932
 21
83.9227
 31
0.0
  0
LINE
  8
0
 62
     0
 10
216.932
 20
83.9227
 30
0.0
 11
216.932
 21
97.9219
 31
0.0
  0
LINE
  8
0
 62
     0
 10
235.982
 20
97.9219
 30
0.0
 11
249.982
 21
97.9219
 31
0.0
  0
LINE
  8
0
 62
     0
 10
249.982
 20
97.9219
 30
0.0
 11
249.982
 21
83.9227
 31
0.0
  0
LINE
  8
0
 62
     0
 10
249.982
 20
83.9227
 30
0.0
 11
235.982
 21
83.9227
 31
0.0
  0
LINE
  8
0
 62
     0
 10
235.982
 20
83.9227
 30
0.0
 11
235.982
 21
97.9219
 31
0.0
  0
LINE
  8
0
 62
     0
 10
255.032
 20
97.9219
 30
0.0
 11
269.032
 21
97.9219
 31
0.0
  0
LINE
  8
0
 62
     0
 10
269.032
 20
97.9219
 30
0.0
 11
269.032
 21
83.9227
 31
0.0
  0
LINE
  8
0
 62
     0
 10
269.032
 20
83.9227
 30
0.0
 11
255.032
 21
83.9227
 31
0.0
  0
LINE
  8
0
 62
     0
 10
255.032
 20
83.9227
 30
0.0
 11
255.032
 21
97.9219
 31
0.0
  0
LINE
  8
0
 62
     0
 10
274.082
 20
97.9219
 30
0.0
 11
288.082
 21
97.9219
 31
0.0
  0
LINE
  8
0
 62
     0
 10
288.082
 20
97.9219
 30
0.0
 11
288.082
 21
83.9227
 31
0.0
  0
LINE
  8
0
 62
     0
 10
288.082
 20
83.9227
 30
0.0
 11
274.082
 21
83.9227
 31
0.0
  0
LINE
  8
0
 62
     0
 10
274.082
 20
83.9227
 30
0.0
 11
274.082
 21
97.9219
 31
0.0
  0
LINE
  8
0
 62
     0
 10
335.995
 20
97.9219
 30
0.0
 11
349.994
 21
97.9219
 31
0.0
  0
LINE
  8
0
 62
     0
 10
349.994
 20
97.9219
 30
0.0
 11
349.994
 21
83.9227
 31
0.0
  0
LINE
  8
0
 62
     0
 10
349.994
 20
83.9227
 30
0.0
 11
335.995
 21
83.9227
 31
0.0
  0
LINE
  8
0
 62
     0
 10
335.995
 20
83.9227
 30
0.0
 11
335.995
 21
97.9219
 31
0.0
  0
LINE
  8
0
 62
     0
 10
359.809
 20
97.9219
 30
0.0
 11
373.807
 21
97.9219
 31
0.0
  0
LINE
  8
0
 62
     0
 10
373.807
 20
97.9219
 30
0.0
 11
373.807
 21
83.9227
 31
0.0
  0
LINE
  8
0
 62
     0
 10
373.807
 20
83.9227
 30
0.0
 11
359.809
 21
83.9227
 31
0.0
  0
LINE
  8
0
 62
     0
 10
359.809
 20
83.9227
 30
0.0
 11
359.809
 21
97.9219
 31
0.0
  0
LINE
  8
0
 62
     0
 10
378.859
 20
97.9219
 30
0.0
 11
392.857
 21
97.9219
 31
0.0
  0
LINE
  8
0
 62
     0
 10
392.857
 20
97.9219
 30
0.0
 11
392.857
 21
83.9227
 31
0.0
  0
LINE
  8
0
 62
     0
 10
392.857
 20
83.9227
 30
0.0
 11
378.859
 21
83.9227
 31
0.0
  0
LINE
  8
0
 62
     0
 10
378.859
 20
83.9227
 30
0.0
 11
378.859
 21
97.9219
 31
0.0
  0
LINE
  8
0
 62
     0
 10
397.909
 20
97.9219
 30
0.0
 11
411.907
 21
97.9219
 31
0.0
  0
LINE
  8
0
 62
     0
 10
411.907
 20
97.9219
 30
0.0
 11
411.907
 21
83.9227
 31
0.0
  0
LINE
  8
0
 62
     0
 10
411.907
 20
83.9227
 30
0.0
 11
397.909
 21
83.9227
 31
0.0
  0
LINE
  8
0
 62
     0
 10
397.909
 20
83.9227
 30
0.0
 11
397.909
 21
97.9219
 31
0.0
  0
LINE
  8
0
 62
     0
 10
416.959
 20
97.9219
 30
0.0
 11
430.957
 21
97.9219
 31
0.0
  0
LINE
  8
0
 62
     0
 10
430.957
 20
97.9219
 30
0.0
 11
430.957
 21
83.9227
 31
0.0
  0
LINE
  8
0
 62
     0
 10
430.957
 20
83.9227
 30
0.0
 11
416.959
 21
83.9227
 31
0.0
  0
LINE
  8
0
 62
     0
 10
416.959
 20
83.9227
 30
0.0
 11
416.959
 21
97.9219
 31
0.0
  0
ENDSEC
  0
EOF
